#!OML:ASF I:\salsa\salsa 7_09\Patient 1\Session 1\dancerfemale.ASF
:FULLY-SPECIFIED
:DEGREES
1440
root 0.759395 15.5651 1.36383 -733.583 57.2534 -740.534
lowerback 4.65804 10.1525 7.90042
upperback -5.45158 14.3693 0.317635
thorax -6.52647 6.73148 -5.16561
lowerneck -0.447646 13.6048 1.18223
upperneck 13.9859 18.0597 5.63278
head 4.26375 9.35686 2.32042
rclavicle 5.28767e-014 1.90833e-014
rhumerus -11.9488 19.9037 -88.5698
rradius 84.8151
rwrist -42.0108
rhand -0.187041 48.1152
rfingers 7.12502
rthumb 25.4112 19.7889
lclavicle 5.28767e-014 1.90833e-014
lhumerus -63.1052 -7.85853 102.752
lradius 123.146
lwrist -49.1062
lhand -59.764 168.7
lfingers 7.12502
lthumb -31.9271 501.48
rfemur -4.72831 -4.46665 26.749
rtibia 33.8377
rfoot -20.5769 13.6567
rtoes -16.9449
lfemur -47.6529 26.5232 -11.2474
ltibia 71.9884
lfoot -20.6726 18.5004
ltoes -24.7239
1441
root 1.06456 15.5684 1.25882 -734.848 60.0025 -741.254
lowerback 5.38799 10.4598 8.67528
upperback -5.46619 14.899 0.0282776
thorax -6.62884 6.93383 -5.99966
lowerneck -0.438676 13.6493 1.13568
upperneck 13.7141 18.1528 5.40767
head 4.17962 9.38937 2.23955
rclavicle 4.47762e-014 2.38542e-014
rhumerus -11.1462 21.036 -87.3384
rradius 84.5925
rwrist -41.9397
rhand -0.595766 48.2311
rfingers 7.12502
rthumb 25.0196 19.8496
lclavicle 4.47762e-014 2.38542e-014
lhumerus -63.4419 -7.50317 103.225
lradius 123.218
lwrist -48.4057
lhand -58.2078 154.579
lfingers 7.12502
lthumb -30.4441 487.073
rfemur -3.25207 -4.89329 25.4636
rtibia 33.8334
rfoot -19.4117 12.274
rtoes -20.6841
lfemur -48.3018 25.8443 -14.2405
ltibia 69.4229
lfoot -19.8197 18.5376
ltoes -28.2672
1442
root 1.40641 15.5602 1.14785 -736.782 63.1055 -742.387
lowerback 5.60136 10.6928 9.68416
upperback -5.24854 15.2854 -0.164723
thorax -6.161 7.10649 -6.69534
lowerneck -0.402223 13.5634 0.970868
upperneck 13.772 18.0751 5.30325
head 4.18969 9.34603 2.22888
rclavicle -9.0944e-015 -2.3059e-014
rhumerus -10.4398 22.4879 -86.1425
rradius 84.2882
rwrist -42.1733
rhand -1.06958 48.5764
rfingers 7.12502
rthumb 24.5655 20.1324
lclavicle -9.0944e-015 -2.3059e-014
lhumerus -64.0082 -7.13584 103.725
lradius 123.436
lwrist -47.6787
lhand -56.6679 147.337
lfingers 7.12502
lthumb -28.9744 479.569
rfemur -1.57307 -5.82277 23.9461
rtibia 34.3594
rfoot -17.4018 11.5731
rtoes -23.4316
lfemur -47.9975 25.2568 -17.399
ltibia 67.5585
lfoot -18.5317 17.3944
ltoes -25.8231
1443
root 1.72468 15.5675 1.02914 -739.912 66.5583 -744.896
lowerback 6.11078 10.8395 10.8742
upperback -5.32468 15.6508 -0.321839
thorax -6.13932 7.22307 -7.54728
lowerneck -0.335836 13.2361 0.672975
upperneck 14.2041 17.6735 5.43848
head 4.30037 9.1598 2.32626
rclavicle -1.91827e-014 -1.19271e-014
rhumerus -10.0801 23.6564 -85.1961
rradius 83.938
rwrist -42.3686
rhand -0.92076 49.1802
rfingers 7.12502
rthumb 24.7082 20.7557
lclavicle -1.91827e-014 -1.19271e-014
lhumerus -64.8786 -6.91982 104.302
lradius 123.443
lwrist -46.4613
lhand -55.3069 153.742
lfingers 7.12502
lthumb -27.6737 485.757
rfemur -0.531754 -6.17211 23.1703
rtibia 35.5265
rfoot -14.328 10.0169
rtoes -24.6524
lfemur -47.6649 24.6972 -20.711
ltibia 65.9216
lfoot -16.0378 16.9482
ltoes -19.1479
1444
root 2.07257 15.5578 0.913885 -744.187 70.1938 -748.861
lowerback 5.61228 11.0702 11.8737
upperback -5.37992 15.988 -0.386449
thorax -5.59293 7.39118 -7.96872
lowerneck -0.573863 12.7481 -0.600667
upperneck 14.787 16.9452 6.94188
head 4.30962 8.84369 3.01627
rclavicle -3.52843e-014 -4.85035e-014
rhumerus -9.96452 24.8852 -84.5518
rradius 84.077
rwrist -43.4865
rhand -0.817769 49.2645
rfingers 7.12502
rthumb 24.8069 20.8535
lclavicle -3.52843e-014 -4.85035e-014
lhumerus -65.579 -6.28563 103.991
lradius 123.912
lwrist -45.9287
lhand -52.1893 138.565
lfingers 7.12502
lthumb -24.689 470.138
rfemur -0.0263629 -7.46053 22.2626
rtibia 37.4917
rfoot -10.6418 9.45878
rtoes -24.6418
lfemur -46.461 23.9634 -23.4207
ltibia 64.6857
lfoot -19.0095 20.6375
ltoes -11.4999
1445
root 2.41603 15.5912 0.793548 -750.24 73.9349 -754.626
lowerback 5.21209 11.3213 12.4775
upperback -5.5336 16.3357 -0.453845
thorax -5.29742 7.56123 -8.23472
lowerneck -0.164533 12.1776 -0.213675
upperneck 15.2291 16.321 6.0476
head 4.53971 8.53243 2.66887
rclavicle -2.78299e-015 2.06736e-014
rhumerus -10.1425 25.3908 -84.3437
rradius 84.054
rwrist -43.1851
rhand -0.367012 49.5881
rfingers 7.12502
rthumb 25.2388 21.2373
lclavicle -2.78299e-015 2.06736e-014
lhumerus -66.4533 -5.79482 103.716
lradius 124.207
lwrist -45.1024
lhand -50.9712 138.58
lfingers 7.12502
lthumb -23.521 469.999
rfemur -0.442133 -9.25635 21.3311
rtibia 40.2743
rfoot -5.24681 8.03907
rtoes -24.5727
lfemur -44.1002 22.1512 -24.8414
ltibia 63.0678
lfoot -18.7518 19.4297
ltoes -9.02933
